<svg width="180" height="180" viewBox="0 0 180 180" fill="none" xmlns="http://www.w3.org/2000/svg">
<g clip-path="url(#clip0)">
<rect width="180" height="180" fill="white"/>
<rect width="180" height="180" fill="#484848"/>
<rect width="180" height="180" fill="url(#paint0_angular)"/>
<path d="M97 121.955C88.976 123.242 68.9161 124.382 52.8681 118.645C36.8201 112.908 16.3144 90.5112 8.06755 80.0302C6.50733 79.4785 4.32302 76.941 8.06755 71.204C9.78704 68.5695 14.5803 65.2914 20.1035 62.1603L20.7772 65.2264L22.818 74.5138C33.9655 84.9439 75.325 109.6 97 121.955Z" fill="#FF9393"/>
<path d="M97 121.955C88.976 123.242 68.9161 124.382 52.8681 118.645C36.8201 112.908 16.3144 90.5112 8.06755 80.0302C6.50733 79.4785 4.32302 76.941 8.06755 71.204C9.78704 68.5695 14.5803 65.2914 20.1035 62.1603L20.7772 65.2264L22.818 74.5138C33.9655 84.9439 75.325 109.6 97 121.955Z" fill="url(#paint1_linear)"/>
<g filter="url(#filter0_d)">
<path fill-rule="evenodd" clip-rule="evenodd" d="M38.1049 14.2207C39.4426 12.4089 43.857 8.67643 50.8131 8.24158C57.0668 7.85064 61.2446 8.02205 64.3419 8.14912C65.551 8.19873 66.5954 8.24158 67.5344 8.24158C67.8779 8.24158 68.2354 8.22438 68.6078 8.20647C71.8615 8.04997 76.2476 7.839 82.2492 18.5692C87.6 28.1358 107.07 73.6498 116.136 95.211L117.698 109.343L70.8787 18.5692H46.8V151.741L36.0984 66.9459L38.1049 14.2207ZM143.115 45.2036L140.439 151.741L131.075 164.786C123.718 167.323 108.067 169.787 104.321 159.351C101.295 150.919 87.5882 113.065 77.3782 84.8834C74.9505 78.1821 72.7204 72.0277 70.8787 66.9459V49.0085L117.698 153.915H131.075L137.764 18.5692L143.115 45.2036ZM46.8 153.915H70.8787L67.5344 156.776L58.1705 164.786L36.0984 162.612L46.8 153.915Z" fill="#FF3535" style="mix-blend-mode:multiply"/>
<path fill-rule="evenodd" clip-rule="evenodd" d="M38.1049 14.2207C39.4426 12.4089 43.857 8.67643 50.8131 8.24158C57.0668 7.85064 61.2446 8.02205 64.3419 8.14912C65.551 8.19873 66.5954 8.24158 67.5344 8.24158C67.8779 8.24158 68.2354 8.22438 68.6078 8.20647C71.8615 8.04997 76.2476 7.839 82.2492 18.5692C87.6 28.1358 107.07 73.6498 116.136 95.211L117.698 109.343L70.8787 18.5692H46.8V151.741L36.0984 66.9459L38.1049 14.2207ZM143.115 45.2036L140.439 151.741L131.075 164.786C123.718 167.323 108.067 169.787 104.321 159.351C101.295 150.919 87.5882 113.065 77.3782 84.8834C74.9505 78.1821 72.7204 72.0277 70.8787 66.9459V49.0085L117.698 153.915H131.075L137.764 18.5692L143.115 45.2036ZM46.8 153.915H70.8787L67.5344 156.776L58.1705 164.786L36.0984 162.612L46.8 153.915Z" fill="url(#paint2_linear)"/>
<path fill-rule="evenodd" clip-rule="evenodd" d="M38.1049 14.2207C39.4426 12.4089 43.857 8.67643 50.8131 8.24158C57.0668 7.85064 61.2446 8.02205 64.3419 8.14912C65.551 8.19873 66.5954 8.24158 67.5344 8.24158C67.8779 8.24158 68.2354 8.22438 68.6078 8.20647C71.8615 8.04997 76.2476 7.839 82.2492 18.5692C87.6 28.1358 107.07 73.6498 116.136 95.211L117.698 109.343L70.8787 18.5692H46.8V151.741L36.0984 66.9459L38.1049 14.2207ZM143.115 45.2036L140.439 151.741L131.075 164.786C123.718 167.323 108.067 169.787 104.321 159.351C101.295 150.919 87.5882 113.065 77.3782 84.8834C74.9505 78.1821 72.7204 72.0277 70.8787 66.9459V49.0085L117.698 153.915H131.075L137.764 18.5692L143.115 45.2036ZM46.8 153.915H70.8787L67.5344 156.776L58.1705 164.786L36.0984 162.612L46.8 153.915Z" fill="url(#paint3_linear)"/>
</g>
<path d="M27.4032 43.5729L36.0983 14.7643V68.0331L46.8 153.915L36.0983 164.786L32.0852 131.086L27.4032 43.5729Z" fill="#E48855"/>
<path d="M27.4032 43.5729L36.0983 14.7643V68.0331L46.8 153.915L36.0983 164.786L32.0852 131.086L27.4032 43.5729Z" fill="url(#paint4_linear)"/>
<path d="M96.9639 14.2207L105.659 8.78516H145.121L149.134 44.66L145.121 151.741H138.433L145.121 48.4649L138.433 17.4821H105.659L113.016 87.6012L96.9639 14.2207Z" fill="#FF0000"/>
<path d="M96.9639 14.2207L105.659 8.78516H145.121L149.134 44.66L145.121 151.741H138.433L145.121 48.4649L138.433 17.4821H105.659L113.016 87.6012L96.9639 14.2207Z" fill="url(#paint5_linear)"/>
<path d="M48.8065 152.285V19.6563L68.8721 17.4821L118.367 115.866L108.334 19.6563H137.764L127.062 152.285H118.367L70.8787 50.0956V152.285H48.8065Z" fill="#E1D6D6"/>
<path d="M48.8065 152.285V19.6563L68.8721 17.4821L118.367 115.866L108.334 19.6563H137.764L127.062 152.285H118.367L70.8787 50.0956V152.285H48.8065Z" fill="url(#paint6_linear)"/>
<path d="M111.929 73.2426C120.543 77.2785 135.519 57.9599 145.061 52.794C154.603 47.628 178.635 33.3319 187.47 31H210C200.06 32.435 164.543 44.7221 160.302 55.4846C156.061 66.247 126.507 79.1619 120.543 87.7719C111.854 98.5562 99.6361 112.189 98.2504 119.556C103.345 123.737 107.079 125.985 101.327 124.583C98.5942 123.918 97.7691 122.115 98.2504 119.556C91.6064 114.104 82.6485 105.363 89.3995 97.1391C98.9415 85.5157 115.905 91.8078 111.929 73.2426Z" fill="#FF4F4F"/>
<path d="M111.929 73.2426C120.543 77.2785 135.519 57.9599 145.061 52.794C154.603 47.628 178.635 33.3319 187.47 31H210C200.06 32.435 164.543 44.7221 160.302 55.4846C156.061 66.247 126.507 79.1619 120.543 87.7719C111.854 98.5562 99.6361 112.189 98.2504 119.556C103.345 123.737 107.079 125.985 101.327 124.583C98.5942 123.918 97.7691 122.115 98.2504 119.556C91.6064 114.104 82.6485 105.363 89.3995 97.1391C98.9415 85.5157 115.905 91.8078 111.929 73.2426Z" fill="url(#paint7_linear)"/>
</g>
<defs>
<filter id="filter0_d" x="23.3417" y="8" width="128.455" height="167" filterUnits="userSpaceOnUse" color-interpolation-filters="sRGB">
<feFlood flood-opacity="0" result="BackgroundImageFix"/>
<feColorMatrix in="SourceAlpha" type="matrix" values="0 0 0 0 0 0 0 0 0 0 0 0 0 0 0 0 0 0 127 0"/>
<feOffset dy="4"/>
<feGaussianBlur stdDeviation="2"/>
<feColorMatrix type="matrix" values="0 0 0 0 0 0 0 0 0 0 0 0 0 0 0 0 0 0 0.25 0"/>
<feBlend mode="normal" in2="BackgroundImageFix" result="effect1_dropShadow"/>
<feBlend mode="normal" in="SourceGraphic" in2="effect1_dropShadow" result="shape"/>
</filter>
<radialGradient id="paint0_angular" cx="0" cy="0" r="1" gradientUnits="userSpaceOnUse" gradientTransform="translate(90 90) rotate(90) scale(90 106.692)">
<stop/>
<stop offset="0.746159" stop-color="white" stop-opacity="0"/>
</radialGradient>
<linearGradient id="paint1_linear" x1="51.5" y1="53" x2="51.5" y2="123" gradientUnits="userSpaceOnUse">
<stop stop-color="#FFE600"/>
<stop offset="1" stop-color="white" stop-opacity="0"/>
</linearGradient>
<linearGradient id="paint2_linear" x1="87.5692" y1="8" x2="87.5692" y2="167" gradientUnits="userSpaceOnUse">
<stop stop-color="#904BFF"/>
<stop offset="1" stop-color="white" stop-opacity="0"/>
</linearGradient>
<linearGradient id="paint3_linear" x1="87.5692" y1="8" x2="87.5692" y2="167" gradientUnits="userSpaceOnUse">
<stop stop-color="#8A428B"/>
<stop offset="1" stop-color="white" stop-opacity="0"/>
</linearGradient>
<linearGradient id="paint4_linear" x1="37.1016" y1="14.7643" x2="37.1016" y2="164.786" gradientUnits="userSpaceOnUse">
<stop stop-color="#5200FF"/>
<stop offset="1" stop-color="white" stop-opacity="0"/>
</linearGradient>
<linearGradient id="paint5_linear" x1="123.049" y1="8.78516" x2="123.049" y2="151.741" gradientUnits="userSpaceOnUse">
<stop stop-color="#B3662E"/>
<stop offset="1" stop-color="white" stop-opacity="0"/>
</linearGradient>
<linearGradient id="paint6_linear" x1="93.2852" y1="17.4821" x2="93.2852" y2="152.285" gradientUnits="userSpaceOnUse">
<stop stop-color="#E6C5E2"/>
<stop offset="1" stop-color="white" stop-opacity="0"/>
</linearGradient>
<linearGradient id="paint7_linear" x1="126.302" y1="26.9641" x2="126.302" y2="131.238" gradientUnits="userSpaceOnUse">
<stop stop-color="#BFAB63"/>
<stop offset="1" stop-color="white" stop-opacity="0"/>
</linearGradient>
<clipPath id="clip0">
<rect width="180" height="180" fill="white"/>
</clipPath>
</defs>
</svg>
